<?xml version="1.0" encoding="utf-8"?>
<!-- Generator: Adobe Illustrator 19.1.0, SVG Export Plug-In . SVG Version: 6.00 Build 0)  -->
<svg version="1.1" id="Layer_1" xmlns="http://www.w3.org/2000/svg" xmlns:xlink="http://www.w3.org/1999/xlink" x="0px" y="0px"
	 viewBox="0 0 99.9 131" style="enable-background:new 0 0 99.9 131;" xml:space="preserve">
<style type="text/css">
	.st0{fill:none;stroke:#357EEB;stroke-miterlimit:10;}
	.st1{fill:none;stroke:#357EEB;stroke-width:3;stroke-linecap:round;stroke-miterlimit:10;}
	.st2{fill:none;stroke:#357EEB;stroke-width:3;stroke-miterlimit:10;}
	.st3{fill:none;stroke:#357EEB;stroke-width:3;stroke-linejoin:round;stroke-miterlimit:10;}
	.st4{fill:none;stroke:#1B49A0;stroke-width:3;stroke-linecap:round;stroke-miterlimit:10;}
	.st5{fill:#F4F4F4;stroke:#1B49A0;stroke-width:3;stroke-linecap:round;stroke-miterlimit:10;}
	.st6{fill:none;stroke:#1B49A0;stroke-width:3;stroke-miterlimit:10;}
	.st7{fill:#F4F4F4;stroke:#1B49A0;stroke-width:3;stroke-miterlimit:10;}
</style>
<g>
	<path class="st0" d="M43.6,37.6"/>
	<line class="st1" x1="16.9" y1="41" x2="58.9" y2="41"/>
	<line class="st1" x1="16.9" y1="52" x2="58.9" y2="52"/>
	<line class="st1" x1="16.9" y1="63" x2="58.9" y2="63"/>
	<g>
		<path class="st2" d="M74.8,27.4v66.7c0,4.1-3.3,7.4-7.3,7.4H8.8c-4,0-7.3-3.3-7.3-7.4V8.9c0-4.1,3.3-7.4,7.3-7.4h40.2"/>
		<path class="st2" d="M49.1,1.5"/>
		<path class="st3" d="M74.8,27.4l-22.1-0.2c-1.8,0-3.3-1.5-3.3-3.3L49.2,1.5L74.8,27.4z"/>
	</g>
	<path class="st4" d="M25.7,80.7c0,0,1.5-4.9,3.7-6.9s2.8,0.1,2.8,1.1c0,1-0.6,6.2,1.1,4.9c1.8-1.2,3.3-4.8,4-3.7
		c0.8,1.1,2.4,3,5,1.4c2.7-1.6,5.4,1.1,8,1.2c2.5,0.1,7.4,0,8.8-0.6"/>
	<circle class="st5" cx="74.4" cy="105.5" r="24"/>
	<g>
		<path class="st6" d="M68.4,112.4V99.8c0-3.5,2.7-6.4,6-6.4h0c3.3,0,6,2.9,6,6.4v12.6"/>
		<path class="st7" d="M82.4,115.6h-16c-0.6,0-1-0.5-1-1v-10c0-0.6,0.4-1,1-1h16c0.5,0,1,0.4,1,1v10
			C83.4,115.1,82.9,115.6,82.4,115.6z"/>
	</g>
</g>
</svg>
