<?xml version="1.0" standalone="no"?>
<!DOCTYPE svg PUBLIC "-//W3C//DTD SVG 20010904//EN"
 "http://www.w3.org/TR/2001/REC-SVG-20010904/DTD/svg10.dtd">
<svg version="1.0" xmlns="http://www.w3.org/2000/svg"
 width="636.000000pt" height="636.000000pt" viewBox="0 0 636.000000 636.000000"
 preserveAspectRatio="xMidYMid meet">
<metadata>
Created by potrace 1.11, written by Peter Selinger 2001-2013
</metadata>
<g transform="translate(0.000000,636.000000) scale(0.100000,-0.100000)"
fill="#000000" stroke="none">
<path d="M2800 6354 c-14 -2 -59 -9 -100 -15 -314 -44 -672 -159 -968 -311
-121 -62 -308 -172 -357 -211 -5 -4 -35 -26 -65 -48 -157 -114 -216 -164 -358
-304 -121 -117 -272 -289 -343 -390 -207 -292 -337 -536 -439 -825 -65 -183
-98 -312 -152 -595 -18 -98 -18 -839 0 -945 92 -526 242 -907 519 -1322 105
-157 227 -303 388 -463 304 -305 603 -507 1020 -691 118 -52 390 -141 500
-163 22 -5 74 -16 115 -24 195 -40 220 -42 620 -42 282 0 416 4 470 13 390 69
652 153 965 309 99 49 284 155 310 176 6 5 55 39 109 77 230 161 516 436 680
655 327 437 514 862 618 1410 21 113 23 145 23 530 0 299 -4 429 -13 480 -45
237 -57 292 -89 400 -136 472 -365 890 -683 1245 -176 197 -412 404 -610 535
-336 223 -741 395 -1105 470 -237 48 -227 48 -635 50 -217 2 -406 1 -420 -1z
m703 -14 c40 -5 108 -15 152 -21 571 -78 1164 -354 1622 -755 398 -348 716
-817 893 -1316 39 -108 111 -364 124 -438 21 -126 28 -168 41 -275 19 -159 19
-550 0 -710 -21 -176 -39 -274 -80 -436 -26 -102 -111 -364 -125 -384 -4 -5
-17 -37 -30 -70 -115 -292 -358 -666 -589 -909 -160 -168 -270 -267 -437 -392
-384 -289 -865 -497 -1339 -579 -190 -33 -333 -45 -555 -45 -436 0 -766 63
-1174 222 -426 167 -835 448 -1151 790 -100 108 -119 130 -189 223 -37 50 -73
97 -79 105 -61 77 -208 329 -272 463 -126 266 -224 576 -266 842 -51 329 -53
738 -3 1035 155 932 709 1744 1516 2221 96 57 302 161 396 200 12 5 32 13 45
19 163 72 487 159 702 189 44 7 107 15 140 20 85 12 572 13 658 1z"/>
<path d="M3126 6182 c-6 -10 -116 -302 -116 -308 0 -2 15 -4 34 -4 29 0 34 4
42 33 10 32 11 32 77 35 l66 3 15 -36 c13 -29 20 -35 46 -35 37 0 40 -14 -38
175 -55 135 -58 140 -89 143 -17 2 -34 -1 -37 -6z m58 -125 c9 -23 16 -46 16
-50 0 -4 -18 -7 -41 -7 -35 0 -40 3 -34 18 4 9 11 32 17 50 12 43 22 40 42
-11z"/>
<path d="M3380 6187 c0 -22 62 -313 68 -319 16 -15 59 -19 69 -6 5 7 41 73 79
146 56 110 66 135 54 142 -35 22 -47 10 -100 -97 -60 -123 -57 -124 -86 30
-15 78 -22 97 -35 97 -10 0 -24 3 -33 6 -9 3 -16 4 -16 1z"/>
<path d="M2691 6149 c-24 -5 -46 -11 -49 -13 -2 -3 0 -33 6 -68 6 -35 17 -102
23 -150 10 -70 16 -88 29 -88 29 0 134 20 162 31 29 12 68 79 68 118 0 52 -24
115 -57 147 -30 30 -39 34 -86 33 -29 -1 -72 -5 -96 -10z m148 -72 c8 -11 16
-48 18 -81 6 -72 -10 -94 -76 -103 -39 -5 -40 -5 -45 28 -10 55 -26 163 -26
171 0 8 56 14 91 10 14 -2 31 -13 38 -25z"/>
<path d="M3746 6048 c-10 -46 -22 -101 -27 -123 -5 -22 -12 -54 -15 -71 l-6
-31 73 -17 c41 -9 91 -19 111 -23 35 -5 38 -4 38 19 0 25 -6 27 -123 53 -31 6
-31 -4 3 137 24 102 25 128 6 128 -8 0 -21 2 -28 5 -10 4 -18 -16 -32 -77z"/>
<path d="M2248 6043 c-10 -2 -18 -8 -18 -11 0 -4 16 -55 34 -113 19 -59 39
-125 45 -147 11 -40 12 -41 42 -30 20 7 28 15 25 27 -33 121 -89 281 -99 280
-7 -1 -20 -3 -29 -6z"/>
<path d="M4126 5952 c-30 -37 -67 -80 -81 -97 -36 -40 -75 -91 -75 -97 0 -3
12 -9 26 -12 21 -6 33 -1 55 20 l29 28 57 -20 c57 -19 58 -20 61 -61 3 -39 16
-52 55 -53 8 0 8 130 -1 248 -7 82 -8 84 -39 97 l-32 14 -55 -67z m61 -138
c-2 -2 -20 3 -41 11 l-37 16 38 45 38 45 3 -57 c2 -31 1 -58 -1 -60z"/>
<path d="M1975 5943 c-49 -26 -60 -44 -60 -90 0 -68 27 -84 135 -81 80 3 85 2
88 -18 2 -14 -7 -29 -24 -43 -32 -25 -61 -27 -84 -6 -13 12 -23 13 -44 6 -14
-6 -26 -15 -26 -20 0 -15 48 -49 80 -56 42 -9 125 29 150 70 24 39 25 47 4 90
-23 49 -61 61 -139 46 -69 -14 -85 -10 -85 19 0 28 58 56 82 41 23 -15 40 -14
63 2 17 13 17 15 -3 35 -27 27 -93 29 -137 5z"/>
<path d="M4412 5900 c-16 -26 -17 -25 28 -45 44 -20 46 -25 26 -58 -7 -12 -34
-61 -59 -109 -46 -89 -46 -96 -6 -111 13 -4 28 17 69 96 68 132 66 130 115
107 39 -18 39 -18 50 3 7 12 11 23 11 23 -2 3 -215 114 -218 114 -2 0 -9 -9
-16 -20z"/>
<path d="M1651 5771 l-25 -19 13 -88 c7 -49 17 -111 22 -137 5 -26 9 -61 9
-78 l0 -30 31 17 c29 14 31 19 26 54 -5 39 -4 40 49 70 l55 31 31 -25 c30 -23
34 -24 61 -9 16 8 25 18 21 23 -24 23 -259 210 -264 210 -3 0 -16 -9 -29 -19z
m127 -142 c3 -7 -49 -39 -61 -39 -3 0 -8 17 -12 38 -3 20 -9 48 -12 62 -6 23
-3 22 38 -14 24 -22 45 -43 47 -47z"/>
<path d="M2973 5743 c9 -2 23 -2 30 0 6 3 -1 5 -18 5 -16 0 -22 -2 -12 -5z"/>
<path d="M3363 5743 c9 -2 23 -2 30 0 6 3 -1 5 -18 5 -16 0 -22 -2 -12 -5z"/>
<path d="M2893 5733 c9 -2 23 -2 30 0 6 3 -1 5 -18 5 -16 0 -22 -2 -12 -5z"/>
<path d="M3443 5733 c9 -2 23 -2 30 0 6 3 -1 5 -18 5 -16 0 -22 -2 -12 -5z"/>
<path d="M2798 5723 c7 -3 16 -2 19 1 4 3 -2 6 -13 5 -11 0 -14 -3 -6 -6z"/>
<path d="M2748 5713 c6 -2 18 -2 25 0 6 3 1 5 -13 5 -14 0 -19 -2 -12 -5z"/>
<path d="M3598 5713 c7 -3 16 -2 19 1 4 3 -2 6 -13 5 -11 0 -14 -3 -6 -6z"/>
<path d="M2678 5703 c7 -3 16 -2 19 1 4 3 -2 6 -13 5 -11 0 -14 -3 -6 -6z"/>
<path d="M3668 5703 c7 -3 16 -2 19 1 4 3 -2 6 -13 5 -11 0 -14 -3 -6 -6z"/>
<path d="M3708 5693 c7 -3 16 -2 19 1 4 3 -2 6 -13 5 -11 0 -14 -3 -6 -6z"/>
<path d="M2478 5653 c7 -3 16 -2 19 1 4 3 -2 6 -13 5 -11 0 -14 -3 -6 -6z"/>
<path d="M3868 5653 c7 -3 16 -2 19 1 4 3 -2 6 -13 5 -11 0 -14 -3 -6 -6z"/>
<path d="M1402 5610 c-18 -15 -25 -34 -32 -102 -6 -46 -10 -87 -10 -93 -1 -5
-20 12 -44 38 -40 45 -45 48 -65 35 -12 -7 -20 -18 -19 -23 7 -26 175 -234
189 -234 9 -1 22 6 29 14 10 13 8 22 -15 54 -21 31 -25 46 -20 70 4 17 10 31
14 31 4 0 35 -11 69 -25 34 -14 68 -25 76 -25 19 0 63 37 54 46 -4 3 -51 22
-105 40 -78 26 -98 36 -96 51 1 10 5 46 9 81 3 34 2 62 -2 62 -5 -1 -19 -9
-32 -20z"/>
<path d="M4862 5478 l-52 -153 26 -23 26 -23 36 23 c21 12 76 47 123 78 48 30
95 60 105 66 18 11 18 12 0 33 -11 11 -23 21 -29 21 -5 0 -52 -30 -104 -66
-93 -64 -95 -65 -91 -37 3 15 19 66 36 113 28 78 29 86 15 103 -9 9 -21 17
-28 17 -6 0 -35 -69 -63 -152z"/>
<path d="M4000 5616 c0 -2 7 -7 16 -10 8 -3 12 -2 9 4 -6 10 -25 14 -25 6z"/>
<path d="M2280 5590 c-8 -5 -10 -10 -5 -10 6 0 17 5 25 10 8 5 11 10 5 10 -5
0 -17 -5 -25 -10z"/>
<path d="M2225 5570 c-3 -6 1 -7 9 -4 18 7 21 14 7 14 -6 0 -13 -4 -16 -10z"/>
<path d="M4110 5576 c0 -2 7 -7 16 -10 8 -3 12 -2 9 4 -6 10 -25 14 -25 6z"/>
<path d="M4160 5556 c0 -2 7 -7 16 -10 8 -3 12 -2 9 4 -6 10 -25 14 -25 6z"/>
<path d="M2130 5530 c-9 -6 -10 -10 -3 -10 6 0 15 5 18 10 8 12 4 12 -15 0z"/>
<path d="M4217 5529 c7 -7 15 -10 18 -7 3 3 -2 9 -12 12 -14 6 -15 5 -6 -5z"/>
<path d="M2790 5505 c-288 -45 -576 -151 -851 -312 -87 -51 -261 -182 -267
-200 -3 -10 46 -13 222 -13 l225 0 103 53 c151 77 328 147 373 147 12 0 102
86 290 279 l59 61 -39 -1 c-22 -1 -74 -7 -115 -14z m-437 -243 c21 -19 22 -40
0 -64 -18 -21 -53 -24 -71 -6 -20 20 -14 65 10 82 22 16 30 14 61 -12z"/>
<path d="M3400 5513 c0 -4 71 -77 158 -163 l159 -157 99 -32 c111 -36 114 -37
277 -115 l117 -56 233 0 232 0 -34 30 c-95 84 -358 243 -501 303 -125 53 -219
91 -245 99 -105 31 -275 71 -364 83 -119 17 -131 18 -131 8z m654 -239 c11 -4
16 -19 16 -43 0 -31 -5 -40 -26 -49 -28 -13 -58 -3 -68 24 -20 51 24 89 78 68z"/>
<path d="M1930 5430 c-9 -6 -10 -10 -3 -10 6 0 15 5 18 10 8 12 4 12 -15 0z"/>
<path d="M4417 5429 c7 -7 15 -10 18 -7 3 3 -2 9 -12 12 -14 6 -15 5 -6 -5z"/>
<path d="M5119 5271 l-114 -110 85 -85 c83 -84 85 -86 103 -67 19 18 18 20
-42 82 l-61 64 30 30 30 29 58 -57 c54 -53 59 -56 74 -40 16 15 13 20 -38 76
l-56 60 26 26 26 25 51 -57 c51 -57 84 -72 96 -41 4 11 -19 40 -74 96 l-80 80
-114 -111z"/>
<path d="M1096 5351 c-16 -18 -12 -23 93 -132 l110 -114 23 23 23 22 -87 88
c-47 48 -94 97 -104 110 -22 27 -36 28 -58 3z"/>
<path d="M1619 5223 c-13 -16 -12 -17 4 -4 9 7 17 15 17 17 0 8 -8 3 -21 -13z"/>
<path d="M1574 5188 l-19 -23 23 19 c12 11 22 21 22 23 0 8 -8 2 -26 -19z"/>
<path d="M875 5110 c-20 -22 -36 -4 145 -163 l74 -66 34 40 c18 21 51 58 72
82 39 42 39 42 19 62 -13 14 -22 16 -27 9 -4 -7 -26 -33 -50 -58 -41 -45 -45
-46 -65 -32 -24 16 -61 48 -124 107 -48 45 -53 46 -78 19z"/>
<path d="M5452 5118 c-17 -17 -15 -28 9 -54 12 -13 19 -29 16 -37 -3 -8 -38
-40 -79 -71 -134 -102 -122 -89 -100 -116 l20 -24 58 44 c70 54 89 68 123 96
l26 22 32 -37 c30 -34 32 -35 49 -19 12 12 14 21 7 30 -99 126 -137 173 -142
176 -4 1 -12 -3 -19 -10z"/>
<path d="M4890 5096 c0 -2 8 -10 18 -17 15 -13 16 -12 3 4 -13 16 -21 21 -21
13z"/>
<path d="M1284 4918 l-29 -33 33 29 c30 28 37 36 29 36 -2 0 -16 -15 -33 -32z"/>
<path d="M740 4927 c-20 -15 -110 -142 -110 -153 1 -13 227 -169 245 -169 17
0 113 127 121 162 15 59 -52 127 -103 104 -32 -15 -33 -14 -33 12 0 13 -8 31
-18 40 -22 20 -80 22 -102 4z m75 -68 c8 -23 -37 -99 -59 -99 -7 0 -21 9 -31
20 -17 19 -17 21 9 60 30 46 70 55 81 19z m107 -56 c24 -22 23 -26 -14 -83
l-31 -48 -34 22 c-18 11 -33 26 -33 32 0 13 73 94 85 94 5 0 17 -7 27 -17z"/>
<path d="M3116 4868 c-25 -7 -57 -28 -88 -59 -43 -43 -55 -49 -111 -58 -206
-31 -461 -132 -641 -254 -157 -105 -274 -219 -395 -382 -56 -75 -151 -227
-151 -241 0 -2 -13 -32 -29 -68 -37 -79 -83 -237 -110 -375 -36 -178 -24 -482
25 -661 67 -244 195 -479 366 -670 295 -331 729 -529 1159 -530 243 0 477 48
686 141 24 10 45 19 48 19 30 0 376 252 441 322 234 250 358 493 430 843 29
140 27 433 -4 580 -35 164 -73 268 -156 432 -73 143 -188 305 -264 372 -238
208 -305 257 -444 324 -170 81 -388 147 -487 147 -19 0 -37 12 -64 44 -26 32
-53 50 -92 65 -62 23 -63 23 -119 9z m-482 -300 c16 -26 -26 -68 -52 -52 -19
12 -27 37 -18 60 8 20 56 14 70 -8z m1144 -7 c5 -32 -23 -54 -49 -40 -19 10
-26 49 -12 63 4 4 19 6 33 4 18 -2 26 -10 28 -27z m-722 -28 l43 -28 1 -194 0
-194 -247 8 c-346 11 -341 11 -372 -19 -24 -23 -35 -26 -103 -26 -115 0 -132
-13 -82 -63 23 -24 35 -27 112 -29 111 -4 121 -22 32 -56 -33 -13 -60 -28 -60
-34 0 -14 280 -4 330 11 19 6 114 11 212 11 l177 0 5 -42 c4 -24 5 -101 4
-173 l-3 -130 -35 -3 c-30 -2 -101 -13 -176 -28 -21 -4 -26 6 -92 226 l-7 25
-153 3 c-96 1 -152 -1 -152 -7 0 -6 6 -30 14 -53 8 -24 31 -99 52 -167 l37
-124 -29 -21 c-121 -87 -173 -245 -116 -354 43 -81 100 -120 240 -161 81 -24
80 -23 113 -141 10 -36 28 -96 39 -135 12 -38 23 -77 24 -86 0 -9 -19 -31 -44
-50 -61 -47 -83 -90 -76 -155 10 -109 65 -168 200 -214 46 -15 52 -21 66 -61
15 -43 17 -44 65 -49 47 -5 50 -7 53 -35 2 -22 -8 -44 -37 -82 -22 -29 -42
-66 -46 -83 -4 -16 -11 -32 -15 -35 -16 -10 -196 24 -277 51 -152 51 -345 154
-456 243 -92 73 -232 228 -299 331 -37 57 -101 179 -137 261 -29 67 -55 170
-76 309 -31 203 -10 434 59 635 98 286 291 536 555 719 50 35 229 125 306 154
63 23 182 55 235 62 30 4 59 8 64 9 4 0 28 -11 52 -26z m379 6 c176 -30 409
-132 560 -245 99 -73 248 -220 297 -293 18 -25 35 -47 40 -49 4 -2 8 -7 8 -12
0 -4 17 -37 38 -71 84 -140 152 -338 177 -518 25 -175 17 -316 -26 -496 -11
-44 -22 -89 -24 -101 -16 -72 -125 -292 -192 -386 -104 -146 -198 -236 -381
-366 -61 -43 -249 -135 -330 -161 -86 -28 -367 -75 -384 -65 -4 3 -8 20 -8 39
0 30 6 37 53 64 61 35 111 84 126 124 16 42 13 115 -6 148 -15 25 -15 35 -4
81 7 29 16 64 21 78 4 14 14 47 22 73 15 57 16 58 88 80 127 38 190 109 190
213 0 69 -30 134 -82 178 l-39 34 21 74 c12 40 34 116 51 168 30 99 32 105 70
233 19 65 28 81 55 98 39 24 87 77 110 121 25 49 37 160 24 223 -27 131 -152
237 -312 266 -27 5 -72 14 -100 19 -29 6 -96 13 -148 16 -58 4 -99 11 -105 18
-6 8 -9 84 -7 197 l3 184 42 27 c23 15 51 25 62 23 11 -2 52 -9 90 -16z
m-1301 -282 c21 -16 18 -45 -6 -61 -35 -22 -74 27 -48 59 15 18 31 19 54 2z
m2126 -2 c26 -32 -13 -81 -47 -59 -35 22 -23 74 17 74 10 0 23 -7 30 -15z
m-802 -376 c73 -19 152 -55 152 -71 0 -4 -13 -8 -29 -8 -26 0 -32 -6 -49 -52
-11 -29 -23 -68 -27 -86 -4 -22 -14 -33 -28 -37 -53 -11 -136 -24 -189 -30
l-58 -6 0 161 0 162 78 -7 c42 -4 110 -16 150 -26z m-1638 -118 c7 -15 5 -24
-8 -41 -25 -31 -62 -20 -62 19 0 15 3 31 7 34 13 14 53 6 63 -12z m2769 1 c12
-22 -11 -62 -34 -62 -8 0 -21 10 -29 22 -20 28 -4 58 29 58 13 0 29 -8 34 -18z
m-1815 -84 c10 -35 22 -76 27 -93 37 -126 64 -220 80 -275 10 -36 28 -96 39
-135 12 -38 25 -86 30 -105 4 -19 24 -89 45 -155 21 -66 41 -133 46 -150 4
-16 17 -64 28 -105 11 -41 30 -109 42 -150 12 -41 24 -87 26 -103 3 -15 9 -30
14 -33 5 -3 9 -18 9 -35 0 -16 5 -29 10 -29 6 0 10 11 10 25 0 13 4 34 9 47 5
13 18 55 29 93 37 132 83 290 183 635 55 190 107 370 115 400 8 30 18 66 23
80 8 22 15 47 36 128 6 21 11 22 101 22 70 0 94 -3 94 -13 0 -7 -18 -73 -41
-147 -22 -74 -49 -162 -59 -195 -10 -33 -35 -112 -55 -175 -37 -116 -46 -146
-63 -210 -6 -19 -26 -87 -46 -150 -20 -63 -41 -131 -46 -150 -5 -19 -21 -71
-34 -115 -13 -44 -36 -120 -51 -170 -15 -49 -42 -142 -62 -205 -19 -63 -37
-121 -39 -127 -2 -9 -32 -13 -104 -13 -95 0 -101 1 -110 23 -8 19 -72 230
-131 432 -11 39 -33 113 -49 165 -16 52 -39 129 -51 170 -12 41 -32 107 -44
145 -13 39 -42 133 -64 210 -58 194 -76 256 -111 365 -17 52 -33 110 -36 128
l-6 32 94 0 94 0 18 -62z m636 -343 c0 -4 -26 -101 -41 -150 -5 -16 -19 -67
-31 -113 l-23 -83 -30 7 c-64 14 -68 20 -61 87 3 33 6 102 6 153 l0 93 58 4
c113 7 122 7 122 2z m-295 -160 l0 -140 -39 3 c-53 4 -75 17 -82 50 -3 15 -17
65 -30 112 -13 46 -21 87 -16 91 8 9 118 28 147 25 19 -1 20 -8 20 -141z
m-1411 13 c22 -35 -27 -74 -59 -48 -20 17 -19 47 3 59 23 14 42 10 56 -11z
m2994 10 c30 -30 0 -75 -43 -64 -19 5 -25 13 -25 35 0 38 41 56 68 29z m-2884
-580 c20 -28 4 -58 -29 -58 -39 0 -53 51 -21 72 19 13 34 9 50 -14z m2764 13
c8 -5 12 -21 10 -37 -2 -23 -9 -30 -30 -32 -37 -4 -57 31 -32 59 19 21 32 23
52 10z m-2440 -493 c32 -32 -18 -87 -53 -58 -28 23 -12 70 25 70 9 0 21 -5 28
-12z m2122 -3 c10 -12 10 -21 2 -40 -7 -14 -16 -25 -22 -25 -23 0 -50 21 -50
38 0 39 46 56 70 27z m-490 -319 c6 -8 10 -25 8 -38 -2 -18 -9 -23 -32 -23
-40 0 -56 27 -32 54 22 25 39 26 56 7z m-1139 -12 c19 -23 -1 -49 -37 -49 -30
0 -42 20 -30 51 7 19 50 18 67 -2z m569 -113 c20 -38 -13 -71 -51 -51 -20 11
-23 27 -13 54 9 22 51 20 64 -3z"/>
<path d="M5555 4760 c-66 -44 -124 -81 -129 -83 -4 -1 22 -49 58 -105 61 -93
69 -100 87 -89 10 6 19 14 19 17 0 3 -21 36 -46 75 l-46 69 29 23 c15 13 33
23 38 23 6 0 27 -27 49 -60 39 -61 55 -71 74 -47 8 10 0 29 -30 76 l-42 63 25
19 c13 10 27 19 30 19 4 0 26 -29 49 -65 42 -65 53 -72 79 -56 10 7 3 24 -34
82 -26 41 -54 84 -61 97 -8 12 -18 22 -22 22 -4 0 -61 -36 -127 -80z"/>
<path d="M1164 4778 l-19 -23 23 19 c21 18 27 26 19 26 -2 0 -12 -10 -23 -22z"/>
<path d="M1129 4733 c-13 -16 -12 -17 4 -4 9 7 17 15 17 17 0 8 -8 3 -21 -13z"/>
<path d="M5225 4730 c10 -11 20 -20 23 -20 3 0 -3 9 -13 20 -10 11 -20 20 -23
20 -3 0 3 -9 13 -20z"/>
<path d="M1289 4605 c-177 -223 -346 -570 -409 -840 -11 -49 -25 -108 -30
-130 -16 -69 -32 -189 -28 -213 3 -20 26 0 164 137 129 130 163 169 174 203
46 152 62 192 134 337 l56 114 -2 231 -3 231 -56 -70z m-145 -551 c20 -19 20
-34 0 -62 -27 -39 -84 -18 -84 32 0 44 52 63 84 30z"/>
<path d="M4990 4440 c0 -195 3 -240 16 -265 80 -153 128 -264 165 -385 l23
-75 160 -157 c128 -125 162 -153 164 -137 4 26 -34 253 -60 349 -80 310 -277
698 -445 880 l-23 25 0 -235z m284 -386 c20 -51 -10 -92 -59 -80 -27 7 -40 36
-31 72 5 20 12 24 45 24 26 0 41 -5 45 -16z"/>
<path d="M540 4621 c-5 -11 -10 -24 -10 -30 0 -5 39 -29 86 -53 99 -50 124
-70 124 -102 0 -26 -34 -66 -56 -66 -9 0 -61 23 -116 52 -96 49 -102 50 -114
33 -8 -10 -14 -24 -14 -30 0 -15 203 -115 234 -115 45 0 74 18 100 63 35 59
34 108 -1 142 -23 22 -203 125 -218 125 -2 0 -9 -9 -15 -19z"/>
<path d="M5790 4477 c-36 -18 -95 -45 -132 -61 -38 -15 -68 -30 -68 -33 0 -4
20 -45 25 -51 2 -2 29 8 60 22 31 15 61 24 66 21 19 -12 8 -61 -26 -117 -27
-43 -34 -63 -29 -83 13 -54 41 -37 85 52 20 41 22 42 42 28 50 -35 128 -8 142
48 10 37 -64 208 -88 206 -6 0 -41 -15 -77 -32z m81 -68 c33 -63 27 -109 -15
-109 -16 0 -28 12 -44 41 -28 51 -28 63 1 77 33 16 45 14 58 -9z"/>
<path d="M926 4423 c-6 -14 -5 -15 5 -6 7 7 10 15 7 18 -3 3 -9 -2 -12 -12z"/>
<path d="M865 4309 c-4 -6 -5 -12 -2 -15 2 -3 7 2 10 11 7 17 1 20 -8 4z"/>
<path d="M5506 4267 c3 -10 9 -15 12 -12 3 3 0 11 -7 18 -10 9 -11 8 -5 -6z"/>
<path d="M414 4263 c-34 -6 -54 -35 -83 -121 l-28 -80 71 -25 c131 -46 229
-78 232 -75 1 2 4 16 6 32 3 26 -1 29 -47 44 -27 8 -51 16 -52 17 -1 0 4 23
12 50 21 68 19 91 -12 124 -29 30 -61 41 -99 34z m56 -78 c14 -16 8 -81 -9
-98 -14 -14 -81 11 -81 31 0 28 38 82 59 82 10 0 24 -7 31 -15z"/>
<path d="M826 4225 c-9 -26 -7 -32 5 -12 6 10 9 21 6 23 -2 3 -7 -2 -11 -11z"/>
<path d="M5520 4231 c0 -6 4 -13 10 -16 6 -3 7 1 4 9 -7 18 -14 21 -14 7z"/>
<path d="M5546 4177 c3 -10 9 -15 12 -12 3 3 0 11 -7 18 -10 9 -11 8 -5 -6z"/>
<path d="M5985 4140 c-11 -5 -73 -25 -138 -46 -117 -36 -118 -37 -112 -63 4
-14 8 -28 10 -30 4 -3 209 59 268 81 27 10 32 23 21 52 -7 18 -19 19 -49 6z"/>
<path d="M5566 4127 c3 -10 9 -15 12 -12 3 3 0 11 -7 18 -10 9 -11 8 -5 -6z"/>
<path d="M765 4069 c-4 -6 -5 -12 -2 -15 2 -3 7 2 10 11 7 17 1 20 -8 4z"/>
<path d="M5606 4017 c3 -10 9 -15 12 -12 3 3 0 11 -7 18 -10 9 -11 8 -5 -6z"/>
<path d="M6015 3959 c-16 -5 -75 -19 -130 -32 -100 -24 -116 -35 -96 -66 8
-12 23 -11 98 7 48 11 90 18 92 16 3 -3 -32 -41 -78 -85 -74 -71 -82 -83 -76
-107 9 -36 9 -36 57 -24 24 6 86 21 138 33 122 27 120 26 120 41 -1 36 -16 42
-77 29 -32 -7 -71 -17 -87 -22 -54 -17 -51 -9 37 79 78 79 87 92 82 115 -8 29
-25 32 -80 16z"/>
<path d="M270 3882 c-48 -48 -52 -155 -7 -187 54 -38 111 -8 155 81 31 61 70
67 87 14 8 -26 -20 -77 -47 -86 -26 -8 -38 -22 -38 -46 0 -13 8 -18 31 -18 95
0 147 179 67 234 -40 28 -86 21 -124 -21 -19 -20 -34 -42 -34 -47 0 -23 -47
-69 -63 -63 -31 12 -15 97 19 97 13 0 34 37 34 61 0 20 -53 8 -80 -19z"/>
<path d="M5651 3874 c0 -11 3 -14 6 -6 3 7 2 16 -1 19 -3 4 -6 -2 -5 -13z"/>
<path d="M681 3794 c0 -11 3 -14 6 -6 3 7 2 16 -1 19 -3 4 -6 -2 -5 -13z"/>
<path d="M5691 3714 c0 -11 3 -14 6 -6 3 7 2 16 -1 19 -3 4 -6 -2 -5 -13z"/>
<path d="M661 3704 c0 -11 3 -14 6 -6 3 7 2 16 -1 19 -3 4 -6 -2 -5 -13z"/>
<path d="M5711 3604 c0 -11 3 -14 6 -6 3 7 2 16 -1 19 -3 4 -6 -2 -5 -13z"/>
<path d="M641 3594 c0 -11 3 -14 6 -6 3 7 2 16 -1 19 -3 4 -6 -2 -5 -13z"/>
<path d="M5852 3548 c3 -28 8 -33 41 -41 33 -8 37 -12 37 -42 0 -18 3 -46 6
-63 6 -28 3 -33 -30 -48 -31 -15 -36 -23 -36 -51 0 -18 2 -33 5 -33 3 0 73 34
156 75 149 75 150 76 147 108 -3 29 -8 33 -63 50 -69 22 -258 77 -263 77 -2 0
-2 -14 0 -32z m217 -93 l34 -11 -53 -23 c-28 -12 -53 -21 -55 -19 -2 2 -6 20
-10 41 -7 38 -7 38 21 31 16 -4 44 -12 63 -19z"/>
<path d="M5721 3554 c0 -11 3 -14 6 -6 3 7 2 16 -1 19 -3 4 -6 -2 -5 -13z"/>
<path d="M195 3548 c-3 -8 -7 -61 -8 -119 l-2 -104 95 -7 c52 -4 120 -9 151
-11 l57 -5 6 52 c20 186 20 183 -8 188 -29 6 -34 -8 -39 -112 l-2 -55 -40 0
-40 0 0 77 c0 68 -2 78 -20 82 -25 7 -26 5 -31 -46 -12 -107 -13 -109 -42
-106 -26 3 -27 5 -32 88 -4 71 -8 85 -23 88 -9 2 -19 -3 -22 -10z"/>
<path d="M631 3544 c0 -11 3 -14 6 -6 3 7 2 16 -1 19 -3 4 -6 -2 -5 -13z"/>
<path d="M5732 3450 c0 -19 2 -27 5 -17 2 9 2 25 0 35 -3 9 -5 1 -5 -18z"/>
<path d="M622 3435 c0 -16 2 -22 5 -12 2 9 2 23 0 30 -3 6 -5 -1 -5 -18z"/>
<path d="M5742 3370 c0 -19 2 -27 5 -17 2 9 2 25 0 35 -3 9 -5 1 -5 -18z"/>
<path d="M612 3350 c0 -19 2 -27 5 -17 2 9 2 25 0 35 -3 9 -5 1 -5 -18z"/>
<path d="M430 3189 c-25 -17 -53 -39 -62 -50 -16 -19 -17 -19 -23 1 -18 58
-90 78 -139 39 -25 -20 -26 -24 -26 -130 l0 -109 155 0 155 0 0 35 0 35 -65 0
c-62 0 -65 1 -65 24 0 24 33 56 103 99 21 14 27 25 27 52 0 19 -3 35 -7 35 -5
0 -28 -14 -53 -31z m-135 -73 c10 -15 15 -40 13 -68 -3 -42 -4 -43 -40 -46
l-38 -3 0 60 c0 47 4 62 18 70 25 15 30 14 47 -13z"/>
<path d="M5877 3194 c-4 -4 -7 -20 -7 -36 0 -28 0 -28 65 -28 62 0 65 -1 65
-25 0 -27 -22 -51 -86 -91 -37 -24 -44 -33 -44 -61 0 -18 3 -33 6 -33 12 0 92
51 109 70 17 19 18 19 39 -13 30 -44 66 -55 111 -34 39 19 41 25 50 155 l6 92
-133 0 c-73 0 -142 3 -153 6 -11 3 -24 2 -28 -2z m255 -114 c-5 -67 -11 -80
-37 -80 -30 0 -45 26 -45 78 0 48 5 54 49 50 36 -3 36 -3 33 -48z"/>
<path d="M612 3010 c0 -19 2 -27 5 -17 2 9 2 25 0 35 -3 9 -5 1 -5 -18z"/>
<path d="M5742 2995 c0 -16 2 -22 5 -12 2 9 2 23 0 30 -3 6 -5 -1 -5 -18z"/>
<path d="M622 2925 c0 -16 2 -22 5 -12 2 9 2 23 0 30 -3 6 -5 -1 -5 -18z"/>
<path d="M820 2904 c0 -47 36 -249 61 -344 49 -182 141 -407 228 -555 20 -33
40 -68 46 -78 28 -48 133 -196 162 -227 l33 -35 0 230 0 230 -34 70 c-62 128
-103 220 -115 260 -7 22 -16 49 -20 60 -5 11 -14 39 -22 62 -11 34 -49 78
-173 203 -87 88 -161 160 -163 160 -1 0 -3 -16 -3 -36z m325 -550 c35 -36 -5
-100 -55 -87 -27 7 -44 51 -28 72 28 36 57 41 83 15z"/>
<path d="M5355 2782 l-161 -157 -34 -105 c-37 -112 -112 -292 -130 -310 -3 -3
-13 -22 -22 -43 -16 -32 -18 -70 -18 -270 l0 -232 36 40 c59 66 198 283 257
400 65 131 148 348 177 465 12 47 25 101 30 120 15 58 32 194 28 223 -3 25
-14 16 -163 -131z m-81 -445 c14 -39 -2 -62 -45 -62 -27 0 -35 5 -43 27 -8 22
-6 32 9 48 27 30 67 23 79 -13z"/>
<path d="M5732 2910 c0 -19 2 -27 5 -17 2 9 2 25 0 35 -3 9 -5 1 -5 -18z"/>
<path d="M5849 2820 c-1 -11 -2 -25 -3 -32 -1 -12 299 -60 309 -49 3 2 5 17 5
32 0 25 -3 28 -52 33 -55 7 -169 23 -225 32 -28 4 -33 2 -34 -16z"/>
<path d="M631 2814 c0 -11 3 -14 6 -6 3 7 2 16 -1 19 -3 4 -6 -2 -5 -13z"/>
<path d="M5721 2804 c0 -11 3 -14 6 -6 3 7 2 16 -1 19 -3 4 -6 -2 -5 -13z"/>
<path d="M642 2770 c0 -14 2 -19 5 -12 2 6 2 18 0 25 -3 6 -5 1 -5 -13z"/>
<path d="M5712 2760 c0 -14 2 -19 5 -12 2 6 2 18 0 25 -3 6 -5 1 -5 -13z"/>
<path d="M661 2654 c0 -11 3 -14 6 -6 3 7 2 16 -1 19 -3 4 -6 -2 -5 -13z"/>
<path d="M5691 2654 c0 -11 3 -14 6 -6 3 7 2 16 -1 19 -3 4 -6 -2 -5 -13z"/>
<path d="M6110 2631 c-8 -5 -50 -21 -93 -36 -75 -26 -79 -27 -142 -13 l-64 15
-10 -28 c-12 -34 -12 -34 61 -49 52 -10 64 -18 130 -86 40 -41 76 -74 79 -74
4 0 11 14 14 32 7 29 3 36 -39 75 -25 24 -46 48 -46 53 0 5 28 17 61 27 46 13
64 24 70 41 18 46 10 61 -21 43z"/>
<path d="M390 2586 c-113 -32 -146 -46 -148 -60 -7 -35 13 -38 94 -16 43 12
84 24 91 27 27 11 10 -15 -62 -92 -66 -70 -75 -84 -70 -109 3 -16 6 -31 8 -32
8 -9 300 79 304 92 2 5 -2 18 -9 27 -12 16 -18 16 -102 -8 -48 -15 -90 -24
-92 -23 -2 2 28 38 66 79 72 77 89 108 74 138 -8 17 -18 16 -154 -23z"/>
<path d="M681 2564 c0 -11 3 -14 6 -6 3 7 2 16 -1 19 -3 4 -6 -2 -5 -13z"/>
<path d="M5671 2564 c0 -11 3 -14 6 -6 3 7 2 16 -1 19 -3 4 -6 -2 -5 -13z"/>
<path d="M5754 2385 c-5 -20 0 -31 21 -50 l28 -23 -19 -59 c-20 -57 -20 -58
-61 -61 -37 -3 -42 -6 -48 -33 -4 -17 -5 -32 -3 -34 1 -1 75 2 163 7 126 8
163 13 173 26 27 34 18 47 -94 142 -94 80 -133 110 -143 110 -6 0 -13 -11 -17
-25z m144 -149 l43 -34 -56 -7 c-31 -4 -58 -6 -60 -3 -6 5 17 78 24 78 3 0 25
-16 49 -34z"/>
<path d="M740 2365 c0 -5 5 -17 10 -25 5 -8 10 -10 10 -5 0 6 -5 17 -10 25 -5
8 -10 11 -10 5z"/>
<path d="M760 2305 c0 -5 5 -17 10 -25 5 -8 10 -10 10 -5 0 6 -5 17 -10 25 -5
8 -10 11 -10 5z"/>
<path d="M5586 2295 c-9 -26 -7 -32 5 -12 6 10 9 21 6 23 -2 3 -7 -2 -11 -11z"/>
<path d="M508 2250 c-114 -35 -156 -129 -105 -230 24 -49 70 -79 124 -80 32 0
104 28 134 52 24 19 49 73 49 105 0 38 -39 112 -70 135 -30 21 -95 30 -132 18z
m121 -86 c44 -56 9 -131 -72 -154 -56 -15 -99 4 -116 51 -16 47 -4 76 43 104
57 35 117 34 145 -1z"/>
<path d="M820 2151 c0 -6 4 -13 10 -16 6 -3 7 1 4 9 -7 18 -14 21 -14 7z"/>
<path d="M5525 2139 c-4 -6 -5 -12 -2 -15 2 -3 7 2 10 11 7 17 1 20 -8 4z"/>
<path d="M846 2097 c3 -10 9 -15 12 -12 3 3 0 11 -7 18 -10 9 -11 8 -5 -6z"/>
<path d="M5505 2099 c-4 -6 -5 -12 -2 -15 2 -3 7 2 10 11 7 17 1 20 -8 4z"/>
<path d="M866 2057 c3 -10 9 -15 12 -12 3 3 0 11 -7 18 -10 9 -11 8 -5 -6z"/>
<path d="M886 2017 c3 -10 9 -15 12 -12 3 3 0 11 -7 18 -10 9 -11 8 -5 -6z"/>
<path d="M906 1977 c3 -10 9 -15 12 -12 3 3 0 11 -7 18 -10 9 -11 8 -5 -6z"/>
<path d="M5425 1939 c-4 -6 -5 -12 -2 -15 2 -3 7 2 10 11 7 17 1 20 -8 4z"/>
<path d="M710 1820 c-58 -33 -108 -60 -112 -60 -3 0 -15 16 -27 35 -22 37 -27
40 -51 25 -16 -10 -7 -32 70 -167 35 -61 43 -65 78 -38 2 2 -6 18 -17 36 -12
19 -21 39 -21 44 0 6 21 21 48 35 41 21 162 89 170 95 5 4 -18 55 -25 55 -5
-1 -55 -27 -113 -60z"/>
<path d="M5514 1811 c-34 -20 -67 -63 -78 -98 -4 -12 -23 -31 -42 -42 -30 -18
-33 -24 -24 -41 9 -17 14 -18 37 -7 22 10 27 9 31 -3 3 -8 24 -33 47 -56 74
-72 161 -76 224 -12 83 84 58 204 -53 257 -56 26 -101 27 -142 2z m115 -62
c69 -42 85 -83 56 -138 -16 -32 -33 -41 -74 -41 -32 0 -87 34 -108 67 -14 20
-12 23 16 37 34 18 33 52 0 43 -29 -8 -23 20 9 37 37 21 61 20 101 -5z"/>
<path d="M867 1639 c-35 -21 -46 -66 -30 -123 8 -28 17 -66 20 -83 4 -28 2
-33 -16 -33 -24 0 -61 36 -61 60 0 9 5 21 11 27 14 14 -17 64 -35 57 -15 -6
-36 -47 -36 -71 0 -25 47 -98 74 -117 61 -39 126 -3 126 70 0 21 -7 59 -15 83
-19 53 -12 81 20 81 45 0 83 -78 54 -107 -9 -9 -8 -19 6 -39 l18 -28 23 30
c13 16 24 42 24 58 0 36 -41 108 -74 130 -29 18 -82 21 -109 5z"/>
<path d="M5184 1578 l-19 -23 23 19 c12 11 22 21 22 23 0 8 -8 2 -26 -19z"/>
<path d="M1200 1536 c0 -2 8 -10 18 -17 15 -13 16 -12 3 4 -13 16 -21 21 -21
13z"/>
<path d="M5269 1477 c-121 -81 -98 -233 45 -292 51 -22 96 -13 142 27 80 71
84 160 10 234 -57 56 -140 70 -197 31z m146 -80 c27 -26 45 -53 45 -66 0 -36
-27 -77 -59 -90 -25 -11 -35 -10 -66 5 -80 37 -108 118 -59 168 42 41 84 36
139 -17z"/>
<path d="M5034 1408 l-19 -23 23 19 c21 18 27 26 19 26 -2 0 -12 -10 -23 -22z"/>
<path d="M1070 1353 c-36 -31 -87 -76 -115 -100 l-49 -43 21 -22 c25 -25 10
-34 160 95 98 85 102 88 85 107 -9 11 -21 20 -27 19 -5 0 -39 -25 -75 -56z"/>
<path d="M1346 1377 c2 -7 14 -19 27 -26 21 -13 21 -12 -2 13 -27 29 -33 32
-25 13z"/>
<path d="M1676 1352 c-3 -5 5 -18 17 -29 31 -28 175 -133 183 -133 3 0 18 -9
34 -20 39 -28 146 -87 213 -118 63 -29 59 -20 41 -111 -6 -31 -12 -28 201 -91
136 -41 247 -62 405 -79 52 -6 159 -18 238 -28 135 -16 152 -16 320 1 388 38
524 63 785 146 l68 21 -6 57 -6 57 103 55 c57 30 162 94 234 142 134 90 179
128 153 128 -179 5 -359 4 -377 -2 -22 -8 -22 -9 -7 -39 9 -17 15 -32 13 -33
-11 -9 -141 -56 -153 -56 -8 0 -17 10 -19 23 -2 12 -8 40 -13 62 l-8 40 -82 3
c-83 3 -83 3 -117 -32 -36 -36 -84 -53 -206 -76 -36 -6 -74 -13 -85 -16 -77
-17 -288 -34 -435 -34 -176 0 -339 16 -460 44 -36 8 -101 22 -145 31 -69 13
-84 20 -111 50 -26 29 -41 36 -87 41 -62 7 -157 -3 -138 -15 17 -11 3 -111
-16 -118 -15 -6 -124 30 -161 53 -2 2 4 17 14 34 14 23 16 33 7 38 -18 12
-390 15 -397 4z m599 -161 c81 -31 132 -44 144 -37 6 4 11 2 11 -4 0 -8 10
-10 28 -6 17 4 22 3 13 -2 -10 -7 -6 -11 15 -15 16 -3 47 -11 69 -17 61 -17
197 -40 225 -38 14 1 32 -2 40 -7 8 -6 62 -11 120 -12 58 -1 152 -5 210 -9
120 -7 353 9 358 25 2 6 16 8 33 4 58 -11 509 94 509 119 0 4 6 5 14 2 8 -3
24 0 36 6 12 6 24 10 26 8 8 -9 35 -169 29 -178 -3 -6 -14 -10 -24 -10 -10 0
-35 -7 -55 -15 -52 -22 -328 -92 -411 -104 -237 -35 -344 -43 -565 -37 -124 2
-252 9 -285 15 -33 6 -89 15 -125 20 -95 15 -238 46 -290 64 -25 8 -85 27
-133 43 -85 27 -88 29 -83 54 3 14 11 53 17 88 7 34 15 62 18 62 3 0 28 -9 56
-19z"/>
<path d="M2380 1113 c-41 -15 -54 -78 -22 -106 41 -38 112 -9 112 44 -1 45
-48 78 -90 62z m51 -23 c26 -14 24 -55 -3 -74 -28 -20 -33 -20 -52 0 -21 21
-20 61 2 73 22 13 29 13 53 1z"/>
<path d="M3946 1075 c3 -19 3 -35 0 -35 -4 0 -27 11 -52 25 -25 14 -46 25 -48
25 -7 0 25 -105 35 -114 8 -8 9 1 4 32 l-7 43 51 -25 c28 -15 51 -24 51 -22 0
3 -5 28 -11 56 -12 56 -34 71 -23 15z"/>
<path d="M2560 1065 c-7 -9 -11 -18 -8 -20 3 -3 11 1 18 10 7 9 11 18 8 20 -3
3 -11 -1 -18 -10z"/>
<path d="M2660 1049 c0 -5 6 -9 14 -9 28 0 25 -18 -10 -59 -20 -23 -35 -43
-33 -45 12 -11 89 -17 89 -7 0 6 -10 11 -23 11 -39 0 -38 11 3 58 22 25 39 46
38 47 -11 8 -78 12 -78 4z"/>
<path d="M3676 1047 c-26 -19 -24 -76 4 -99 28 -23 52 -23 81 0 28 24 31 79 4
98 -24 18 -66 18 -89 1z m68 -10 c22 -16 25 -65 5 -78 -35 -22 -71 -3 -71 37
0 24 23 54 42 54 3 0 14 -6 24 -13z"/>
<path d="M3545 1033 c-37 -5 -58 -23 -28 -23 18 0 22 -8 28 -50 4 -27 11 -50
17 -50 6 0 7 21 3 55 -6 47 -5 55 9 55 9 0 16 5 16 10 0 6 -3 9 -7 9 -5 -1
-21 -4 -38 -6z"/>
<path d="M2803 970 c-9 -60 -9 -61 15 -67 39 -9 57 8 58 58 1 51 -9 69 -41 69
-19 0 -23 -7 -32 -60z m57 25 c0 -8 -7 -15 -15 -15 -8 0 -15 7 -15 15 0 8 7
15 15 15 8 0 15 -7 15 -15z m-5 -55 c0 -8 -8 -16 -17 -18 -13 -2 -18 3 -18 18
0 15 5 20 18 18 9 -2 17 -10 17 -18z"/>
<path d="M3383 1013 c-24 -9 -14 -48 17 -66 17 -10 30 -22 30 -27 0 -16 -21
-22 -36 -9 -8 6 -18 9 -22 5 -4 -4 1 -14 12 -21 14 -10 24 -11 42 -3 33 15 30
45 -6 66 -34 20 -39 42 -9 42 11 0 17 5 14 10 -7 11 -22 12 -42 3z"/>
<path d="M2956 954 c-4 -31 -5 -58 -3 -60 10 -10 67 -15 67 -6 0 6 -10 12 -22
14 -13 2 -24 11 -26 21 -3 13 3 17 27 17 17 0 31 5 31 10 0 6 -11 10 -25 10
-18 0 -25 5 -25 20 0 17 5 19 25 14 15 -4 25 -2 25 5 0 6 -15 11 -34 11 -33 0
-33 0 -40 -56z"/>
<path d="M3269 1005 c-8 -16 2 -125 12 -125 10 0 10 59 0 105 -3 17 -9 26 -12
20z"/>
<path d="M3100 940 c0 -33 4 -60 10 -60 6 0 10 15 10 33 l1 32 28 -35 c35 -42
52 -34 20 9 -22 30 -22 31 -4 51 10 11 15 23 11 28 -4 4 -16 -3 -26 -15 -22
-28 -30 -29 -30 -3 0 11 -4 20 -10 20 -6 0 -10 -27 -10 -60z"/>
<path d="M4964 1338 l-19 -23 23 19 c12 11 22 21 22 23 0 8 -8 2 -26 -19z"/>
<path d="M1400 1326 c0 -2 8 -10 18 -17 15 -13 16 -12 3 4 -13 16 -21 21 -21
13z"/>
<path d="M1214 1203 l-19 -108 -82 -3 c-46 -2 -83 -5 -83 -8 0 -3 12 -17 26
-31 25 -25 29 -25 120 -21 52 3 94 4 94 3 0 -1 -20 -23 -45 -50 -42 -46 -44
-50 -28 -67 9 -10 22 -17 29 -16 6 2 58 52 114 111 l103 108 -21 22 -22 21
-33 -32 c-34 -33 -107 -56 -107 -34 0 6 7 45 17 87 l16 75 -23 25 c-13 14 -26
25 -30 25 -4 0 -15 -48 -26 -107z"/>
<path d="M4919 1293 c-13 -16 -12 -17 4 -4 16 13 21 21 13 21 -2 0 -10 -8 -17
-17z"/>
<path d="M4948 1149 c-10 -5 -18 -14 -18 -18 0 -7 58 -87 123 -168 19 -25 -1
-12 -88 56 -85 66 -90 68 -112 54 -13 -8 -23 -19 -23 -23 0 -4 20 -52 44 -106
24 -55 42 -101 39 -104 -2 -2 -8 2 -13 10 -5 8 -35 48 -66 87 -48 61 -59 71
-75 63 -10 -6 -20 -14 -23 -18 -6 -10 179 -247 192 -247 4 0 22 12 39 26 l32
27 -40 92 c-22 51 -38 94 -36 96 2 2 39 -23 83 -56 43 -33 81 -60 84 -60 3 0
21 13 40 28 l34 29 -95 121 c-52 67 -96 121 -99 121 -3 0 -13 -4 -22 -10z"/>
<path d="M4726 1135 c-11 -8 -15 -15 -9 -15 6 0 16 7 23 15 16 19 11 19 -14 0z"/>
<path d="M5194 1095 c-8 -20 43 -87 63 -83 9 2 21 11 27 21 9 15 5 23 -22 48
-36 32 -60 37 -68 14z"/>
<path d="M1500 1039 c-7 -11 -10 -22 -8 -23 2 -2 33 -24 71 -50 l67 -48 -22
-31 c-12 -18 -23 -34 -24 -36 -4 -4 -101 57 -119 76 -12 11 -16 10 -30 -9 -13
-20 -13 -24 -1 -33 7 -5 34 -25 60 -42 50 -35 56 -51 28 -76 -17 -15 -22 -14
-86 29 -64 43 -68 45 -81 27 -11 -14 -11 -21 -2 -30 19 -18 168 -123 176 -123
3 0 17 17 31 37 14 21 54 77 89 126 34 49 59 92 55 96 -17 15 -184 131 -189
131 -2 0 -9 -9 -15 -21z"/>
<path d="M1820 996 c0 -2 7 -7 16 -10 8 -3 12 -2 9 4 -6 10 -25 14 -25 6z"/>
<path d="M1960 916 c0 -2 7 -7 16 -10 8 -3 12 -2 9 4 -6 10 -25 14 -25 6z"/>
<path d="M4375 910 c-3 -6 1 -7 9 -4 18 7 21 14 7 14 -6 0 -13 -4 -16 -10z"/>
<path d="M4613 904 c-21 -15 -21 -16 54 -132 92 -145 94 -147 123 -132 14 8
19 17 15 28 -8 23 -159 252 -165 251 -3 0 -15 -7 -27 -15z"/>
<path d="M2000 896 c0 -2 7 -7 16 -10 8 -3 12 -2 9 4 -6 10 -25 14 -25 6z"/>
<path d="M2040 876 c0 -2 7 -7 16 -10 8 -3 12 -2 9 4 -6 10 -25 14 -25 6z"/>
<path d="M4295 870 c-3 -6 1 -7 9 -4 18 7 21 14 7 14 -6 0 -13 -4 -16 -10z"/>
<path d="M2080 856 c0 -2 7 -7 16 -10 8 -3 12 -2 9 4 -6 10 -25 14 -25 6z"/>
<path d="M4255 850 c-3 -6 1 -7 9 -4 18 7 21 14 7 14 -6 0 -13 -4 -16 -10z"/>
<path d="M1770 820 c-22 -16 -25 -26 -24 -74 1 -38 -2 -56 -11 -56 -41 0 -61
-92 -27 -123 30 -28 165 -98 172 -90 12 13 140 261 140 270 0 14 -168 93 -198
93 -15 0 -38 -9 -52 -20z m123 -61 c23 -12 44 -23 46 -25 5 -4 -28 -74 -35
-74 -10 0 -69 33 -86 48 -21 18 -23 43 -6 60 17 17 33 15 81 -9z m-52 -129
l39 -21 -15 -29 c-9 -17 -19 -30 -23 -30 -4 0 -26 10 -49 22 -30 16 -43 29
-43 44 0 40 29 45 91 14z"/>
<path d="M2137 829 c7 -7 15 -10 18 -7 3 3 -2 9 -12 12 -14 6 -15 5 -6 -5z"/>
<path d="M4210 830 c-9 -6 -10 -10 -3 -10 6 0 15 5 18 10 8 12 4 12 -15 0z"/>
<path d="M2237 789 c7 -7 15 -10 18 -7 3 3 -2 9 -12 12 -14 6 -15 5 -6 -5z"/>
<path d="M4405 787 c-17 -13 -15 -20 44 -130 l62 -116 -40 -21 c-39 -19 -42
-28 -24 -62 4 -8 188 86 213 108 12 12 12 16 -2 30 -14 14 -18 14 -46 0 -17
-9 -35 -16 -41 -16 -5 0 -36 49 -68 110 -32 60 -63 110 -69 110 -5 0 -18 -6
-29 -13z"/>
<path d="M2280 770 c8 -5 20 -10 25 -10 6 0 3 5 -5 10 -8 5 -19 10 -25 10 -5
0 -3 -5 5 -10z"/>
<path d="M4060 770 c-8 -5 -10 -10 -5 -10 6 0 17 5 25 10 8 5 11 10 5 10 -5 0
-17 -5 -25 -10z"/>
<path d="M4000 750 c-8 -5 -10 -10 -5 -10 6 0 17 5 25 10 8 5 11 10 5 10 -5 0
-17 -5 -25 -10z"/>
<path d="M4248 709 c-12 -7 -18 -22 -18 -48 0 -33 -4 -39 -37 -53 -72 -32 -88
-32 -112 -3 -19 25 -23 27 -51 15 -16 -7 -30 -15 -30 -19 0 -3 53 -60 119
-125 l118 -118 33 17 c28 15 31 20 26 47 -3 17 -6 91 -6 164 0 140 -2 147 -42
123z m-14 -165 c9 -23 7 -94 -2 -94 -10 0 -76 80 -70 85 5 5 50 23 59 24 4 1
10 -6 13 -15z"/>
<path d="M2085 689 c-9 -26 -3 -29 86 -59 38 -13 69 -26 69 -30 0 -3 -24 -19
-52 -34 -135 -72 -186 -106 -191 -128 -4 -12 -5 -23 -4 -23 11 -7 196 -75 204
-75 10 0 23 22 23 39 0 4 -30 18 -66 31 -78 27 -82 21 68 106 73 41 99 61 104
80 4 14 5 26 3 28 -8 7 -218 86 -228 86 -5 0 -13 -10 -16 -21z"/>
<path d="M2648 663 c7 -3 16 -2 19 1 4 3 -2 6 -13 5 -11 0 -14 -3 -6 -6z"/>
<path d="M3698 663 c7 -3 16 -2 19 1 4 3 -2 6 -13 5 -11 0 -14 -3 -6 -6z"/>
<path d="M2758 643 c6 -2 18 -2 25 0 6 3 1 5 -13 5 -14 0 -19 -2 -12 -5z"/>
<path d="M3588 643 c7 -3 16 -2 19 1 4 3 -2 6 -13 5 -11 0 -14 -3 -6 -6z"/>
<path d="M2808 633 c7 -3 16 -2 19 1 4 3 -2 6 -13 5 -11 0 -14 -3 -6 -6z"/>
<path d="M3538 633 c7 -3 16 -2 19 1 4 3 -2 6 -13 5 -11 0 -14 -3 -6 -6z"/>
<path d="M2913 623 c9 -2 25 -2 35 0 9 3 1 5 -18 5 -19 0 -27 -2 -17 -5z"/>
<path d="M3413 623 c9 -2 25 -2 35 0 9 3 1 5 -18 5 -19 0 -27 -2 -17 -5z"/>
<path d="M2993 613 c9 -2 25 -2 35 0 9 3 1 5 -18 5 -19 0 -27 -2 -17 -5z"/>
<path d="M3333 613 c9 -2 25 -2 35 0 9 3 1 5 -18 5 -19 0 -27 -2 -17 -5z"/>
<path d="M3758 548 c-54 -31 -65 -97 -25 -144 20 -22 34 -27 102 -35 44 -4 81
-8 83 -8 1 -1 2 -10 2 -21 0 -37 -75 -55 -101 -24 -11 13 -53 13 -67 -1 -10
-10 24 -49 55 -61 31 -13 41 -13 88 1 73 21 102 69 79 130 -10 25 -58 45 -108
45 -88 0 -126 38 -74 74 31 22 68 20 94 -5 15 -14 29 -18 48 -13 32 8 33 15 0
53 -23 28 -31 31 -82 31 -40 0 -68 -7 -94 -22z"/>
<path d="M2591 528 c-52 -27 -79 -72 -87 -144 -10 -96 54 -164 154 -164 96 0
152 63 152 172 0 87 -44 135 -140 153 -26 4 -47 0 -79 -17z m122 -58 c76 -60
19 -211 -73 -196 -45 7 -70 38 -70 87 0 106 75 163 143 109z"/>
<path d="M3545 509 c-4 -6 -4 -31 -1 -57 33 -255 33 -252 54 -252 43 1 44 9
23 163 -12 81 -21 149 -21 152 0 10 -49 5 -55 -6z"/>
<path d="M2326 357 c-21 -55 -21 -53 13 -65 28 -10 30 -8 40 20 6 17 11 44 11
59 0 24 -4 29 -24 29 -18 0 -27 -9 -40 -43z"/>
</g>
</svg>
